ply
format ascii 1.0
comment Created by Blender 2.92.0 - www.blender.org
element vertex 198
property float x
property float y
property float z
property float nx
property float ny
property float nz
property float s
property float t
element face 60
property list uchar uint vertex_indices
end_header
-3.009337 2.883726 -0.532809 -1.000000 -0.000000 0.000000 0.171875 0.875000
-3.009337 2.883726 0.055296 -1.000000 -0.000000 0.000000 0.171875 1.000000
-3.009337 3.748679 0.055296 -1.000000 -0.000000 0.000000 0.046875 1.000000
-3.009337 3.748679 -0.532809 -1.000000 -0.000000 0.000000 0.046875 0.875000
-0.306335 0.664345 0.551671 -0.496204 -0.303425 0.813459 0.008136 0.730528
0.000000 0.638889 0.729038 -0.496204 -0.303425 0.813459 0.036943 0.730528
0.000000 1.396963 1.011804 -0.496204 -0.303425 0.813459 0.036943 0.870948
-0.377959 1.428371 0.792968 -0.496204 -0.303425 0.813459 0.008136 0.870948
3.009337 3.748679 -0.532809 1.000000 -0.000000 0.000000 0.171875 0.875000
3.009337 3.748679 0.055296 1.000000 -0.000000 0.000000 0.171875 1.000000
3.009337 2.883726 0.055296 1.000000 -0.000000 0.000000 0.046875 1.000000
3.009337 2.883726 -0.532809 1.000000 -0.000000 0.000000 0.046875 0.875000
0.856480 -2.015944 0.000000 0.000000 -0.608832 0.793299 0.046875 0.015625
0.712959 -0.712959 1.000000 0.000000 -0.608832 0.793299 0.046875 0.593750
-0.712959 -0.712959 1.000000 0.000000 -0.608832 0.793299 0.000000 0.593750
-0.856480 -2.015944 0.000000 0.000000 -0.608832 0.793299 0.000000 0.015625
-1.000000 1.000000 -1.000000 0.000000 0.000000 -1.000000 0.206666 0.898072
1.000000 1.000000 -1.000000 0.000000 0.000000 -1.000000 0.269896 0.898072
1.000000 -3.318928 -1.000000 0.000000 0.000000 -1.000000 0.269896 0.961303
-1.000000 -3.318928 -1.000000 0.000000 0.000000 -1.000000 0.206666 0.961303
0.712959 0.712959 1.000000 0.000000 -0.000000 1.000000 0.046875 0.875000
-0.712959 0.712959 1.000000 0.000000 -0.000000 1.000000 0.171875 0.875000
-0.712959 -0.712959 1.000000 0.000000 -0.000000 1.000000 0.171875 1.000000
0.712959 -0.712959 1.000000 0.000000 -0.000000 1.000000 0.046875 1.000000
-3.009337 2.883726 -0.532809 -0.226469 0.000000 -0.974018 0.206666 0.898072
-3.009337 3.748679 -0.532809 -0.226469 0.000000 -0.974018 0.269896 0.898072
-1.000000 1.000000 -1.000000 -0.226469 0.000000 -0.974018 0.269896 0.961303
-1.000000 -3.318928 -1.000000 -0.226469 0.000000 -0.974018 0.206666 0.961303
-2.004668 -0.217601 -0.766405 -0.226469 0.000000 -0.974018 0.206666 0.929687
-3.009337 2.883726 -0.532809 -0.842856 -0.538139 0.000000 0.171875 0.984375
-1.861148 1.085383 0.233595 -0.842856 -0.538139 0.000000 0.234375 0.953125
-0.712959 -0.712959 1.000000 -0.842856 -0.538139 0.000000 0.359375 0.921875
-3.009337 2.883726 0.055296 -0.842856 -0.538139 0.000000 0.171875 0.875000
-3.009337 2.883726 0.055296 -0.380453 0.000000 0.924800 0.171875 1.000000
-0.712959 0.712959 1.000000 -0.380453 0.000000 0.924800 0.234375 0.859375
-3.009337 3.748679 0.055296 -0.380453 0.000000 0.924800 0.171875 0.859375
-3.009337 3.748679 -0.532809 0.802859 0.595726 -0.022973 0.183134 0.035151
-3.009337 3.748679 0.055296 0.802859 0.595726 -0.022973 0.149876 0.030588
-0.712959 0.712959 1.000000 0.802859 0.595726 -0.022973 0.066866 0.238494
-1.000000 1.000000 -1.000000 0.802859 0.595726 -0.022973 0.183134 0.231321
3.009337 3.748679 0.055296 -0.802859 0.595726 -0.022973 0.149876 0.030588
3.009337 3.748679 -0.532809 -0.802859 0.595726 -0.022973 0.183134 0.035151
1.000000 1.000000 -1.000000 -0.802859 0.595726 -0.022973 0.183134 0.231321
0.712959 0.712959 1.000000 -0.802859 0.595726 -0.022973 0.066866 0.238494
3.009337 3.748679 -0.532809 0.226469 0.000000 -0.974018 0.206666 0.898072
3.009337 2.883726 -0.532809 0.226469 0.000000 -0.974018 0.269896 0.898072
2.004668 -0.217601 -0.766405 0.226469 0.000000 -0.974018 0.269896 0.929687
1.000000 -3.318928 -1.000000 0.226469 0.000000 -0.974018 0.269896 0.961303
1.000000 1.000000 -1.000000 0.226469 0.000000 -0.974018 0.206666 0.961303
3.009337 2.883726 0.055296 0.380453 -0.000000 0.924800 0.171875 1.000000
0.712959 0.712959 1.000000 0.380453 -0.000000 0.924800 0.234375 0.859375
0.712959 -0.712959 1.000000 0.380453 -0.000000 0.924800 0.234375 1.000000
3.009337 2.883726 -0.532809 0.808155 -0.299977 0.506852 0.171875 1.000000
1.861148 1.085383 0.233595 0.808155 -0.299977 0.506852 0.296875 0.859375
2.004668 -0.217601 -0.766405 0.808155 -0.299977 0.506852 0.244893 1.000000
-0.306335 0.664345 0.551671 0.288415 0.953422 0.088338 0.469660 0.417140
-0.590633 0.743521 0.000000 0.288415 0.953422 0.088338 0.517539 0.441218
-0.541126 0.822697 -0.551671 0.288415 0.953422 0.088338 0.565323 0.436979
-1.000000 1.000000 -1.000000 0.288415 0.953422 0.088338 0.607185 0.478275
-0.712959 0.712959 1.000000 0.288415 0.953422 0.088338 0.430078 0.453780
-0.541126 0.822697 -0.551671 0.000000 0.916621 0.399757 0.565323 0.436979
0.000000 0.848153 -0.729038 0.000000 0.916621 0.399757 0.580574 0.390726
0.541126 0.822697 -0.551671 0.000000 0.916621 0.399757 0.565360 0.344512
1.000000 1.000000 -1.000000 0.000000 0.916621 0.399757 0.607185 0.303239
-1.000000 1.000000 -1.000000 0.000000 0.916621 0.399757 0.607185 0.478275
0.306335 0.664345 0.551671 -0.000000 0.990008 -0.141010 0.469711 0.364412
0.000000 0.638889 0.729038 -0.000000 0.990008 -0.141010 0.454312 0.390771
-0.306335 0.664345 0.551671 -0.000000 0.990008 -0.141010 0.469660 0.417140
-0.712959 0.712959 1.000000 -0.000000 0.990008 -0.141010 0.430078 0.453780
0.712959 0.712959 1.000000 -0.000000 0.990008 -0.141010 0.430134 0.327761
0.541126 0.822697 -0.551671 -0.288415 0.953422 0.088338 0.565360 0.344512
0.590633 0.743521 0.000000 -0.288415 0.953422 0.088338 0.517571 0.340314
0.306335 0.664345 0.551671 -0.288415 0.953422 0.088338 0.469711 0.364412
0.712959 0.712959 1.000000 -0.288415 0.953422 0.088338 0.430134 0.327761
1.000000 1.000000 -1.000000 -0.288415 0.953422 0.088338 0.607185 0.303239
0.000000 0.848153 -0.729038 -0.307834 -0.068376 -0.948980 -0.000080 0.647902
-0.541126 0.822697 -0.551671 -0.307834 -0.068376 -0.948980 0.032757 0.647902
-0.667647 1.623747 -0.568347 -0.307834 -0.068376 -0.948980 0.032757 0.724145
0.000000 1.655155 -0.787184 -0.307834 -0.068376 -0.948980 -0.000080 0.724145
0.590633 0.743521 0.000000 0.981334 -0.157298 -0.110641 -0.000080 0.647902
0.541126 0.822697 -0.551671 0.981334 -0.157298 -0.110641 0.032757 0.647902
0.667647 1.623747 -0.568347 0.981334 -0.157298 -0.110641 0.032757 0.724145
0.728729 1.526059 0.112310 0.981334 -0.157298 -0.110641 -0.000080 0.724145
0.541126 0.822697 -0.551671 0.307834 -0.068376 -0.948980 -0.000080 0.647902
0.000000 0.848153 -0.729038 0.307834 -0.068376 -0.948980 0.032757 0.647902
0.000000 1.655155 -0.787184 0.307834 -0.068376 -0.948980 0.032757 0.724145
0.667647 1.623747 -0.568347 0.307834 -0.068376 -0.948980 -0.000080 0.724145
0.377959 1.428371 0.792968 0.888974 -0.001177 0.457956 0.008136 0.730528
0.728729 1.526059 0.112310 0.888974 -0.001177 0.457956 0.036943 0.730528
0.708848 1.799863 0.151607 0.888974 -0.001177 0.457956 0.036943 0.870948
0.367647 1.704840 0.813695 0.888974 -0.001177 0.457956 0.008136 0.870948
-0.667647 1.623747 -0.568347 -0.993535 0.083223 -0.077216 -0.000080 0.647902
-0.728729 1.526059 0.112310 -0.993535 0.083223 -0.077216 0.032757 0.647902
-0.708848 1.799863 0.151607 -0.993535 0.083223 -0.077216 0.032757 0.724145
-0.649432 1.894886 -0.510481 -0.993535 0.083223 -0.077216 -0.000080 0.724145
0.000000 1.396963 1.011804 0.503394 -0.045912 0.862836 0.008136 0.730528
0.377959 1.428371 0.792968 0.503394 -0.045912 0.862836 0.036943 0.730528
0.367647 1.704840 0.813695 0.503394 -0.045912 0.862836 0.036943 0.870948
0.000000 1.674289 1.026561 0.503394 -0.045912 0.862836 0.008136 0.870948
-0.728729 1.526059 0.112310 -0.888974 -0.001177 0.457956 0.008136 0.730528
-0.377959 1.428371 0.792968 -0.888974 -0.001177 0.457956 0.036943 0.730528
-0.367647 1.704840 0.813695 -0.888974 -0.001177 0.457956 0.036943 0.870948
-0.708848 1.799863 0.151607 -0.888974 -0.001177 0.457956 0.008136 0.870948
-0.590633 0.743521 0.000000 -0.880202 -0.215983 0.422606 0.008136 0.730528
-0.306335 0.664345 0.551671 -0.880202 -0.215983 0.422606 0.036943 0.730528
-0.377959 1.428371 0.792968 -0.880202 -0.215983 0.422606 0.036943 0.870948
-0.728729 1.526059 0.112310 -0.880202 -0.215983 0.422606 0.008136 0.870948
0.000000 0.638889 0.729038 0.496204 -0.303425 0.813459 0.008136 0.730528
0.306335 0.664345 0.551671 0.496204 -0.303425 0.813459 0.036943 0.730528
0.377959 1.428371 0.792968 0.496204 -0.303425 0.813459 0.036943 0.870948
0.000000 1.396963 1.011804 0.496204 -0.303425 0.813459 0.008136 0.870948
0.306335 0.664345 0.551671 0.880202 -0.215983 0.422606 0.008136 0.730528
0.590633 0.743521 0.000000 0.880202 -0.215983 0.422606 0.036943 0.730528
0.728729 1.526059 0.112310 0.880202 -0.215983 0.422606 0.036943 0.870948
0.377959 1.428371 0.792968 0.880202 -0.215983 0.422606 0.008136 0.870948
-0.541126 0.822697 -0.551671 -0.981334 -0.157298 -0.110641 -0.000080 0.647902
-0.590633 0.743521 0.000000 -0.981334 -0.157298 -0.110641 0.032757 0.647902
-0.728729 1.526059 0.112310 -0.981334 -0.157298 -0.110641 0.032757 0.724145
-0.667647 1.623747 -0.568347 -0.981334 -0.157298 -0.110641 -0.000080 0.724145
-0.252158 1.720329 0.705774 0.464974 0.498715 -0.731493 0.005132 0.718222
0.000000 1.699375 0.851773 0.464974 0.498715 -0.731493 0.039947 0.718222
-0.000000 0.296847 -0.104438 0.464974 0.498715 -0.731493 0.039947 0.858451
0.000000 1.902627 -0.564418 0.289232 0.263608 0.920248 0.005132 0.718222
-0.506470 1.878802 -0.398411 0.289232 0.263608 0.920248 0.039947 0.718222
-0.000000 0.296847 -0.104438 0.289232 0.263608 0.920248 0.039947 0.858451
0.553146 1.804153 0.121717 -0.936918 0.324230 0.130613 0.005132 0.718222
0.506470 1.878802 -0.398411 -0.936918 0.324230 0.130613 0.039947 0.718222
-0.000000 0.296847 -0.104438 -0.936918 0.324230 0.130613 0.039947 0.858451
0.506470 1.878802 -0.398411 -0.289232 0.263607 0.920248 0.005132 0.718222
0.000000 1.902627 -0.564418 -0.289232 0.263607 0.920248 0.039947 0.718222
-0.000000 0.296847 -0.104438 -0.289232 0.263607 0.920248 0.039947 0.858451
0.667647 1.623747 -0.568347 0.313215 0.218294 -0.924253 -0.000080 0.647902
0.000000 1.655155 -0.787184 0.313215 0.218294 -0.924253 0.032757 0.647902
0.000000 1.925437 -0.723347 0.313215 0.218294 -0.924253 0.032757 0.724145
0.649432 1.894886 -0.510481 0.313215 0.218294 -0.924253 -0.000080 0.724145
0.728729 1.526059 0.112310 0.993535 0.083223 -0.077216 -0.000080 0.647902
0.667647 1.623747 -0.568347 0.993535 0.083223 -0.077216 0.032757 0.647902
0.649432 1.894886 -0.510481 0.993535 0.083223 -0.077216 0.032757 0.724145
0.708848 1.799863 0.151607 0.993535 0.083223 -0.077216 -0.000080 0.724145
0.000000 1.655155 -0.787184 -0.313215 0.218294 -0.924253 -0.000080 0.647902
-0.667647 1.623747 -0.568347 -0.313215 0.218294 -0.924253 0.032757 0.647902
-0.649432 1.894886 -0.510481 -0.313215 0.218294 -0.924253 0.032757 0.724145
0.000000 1.925437 -0.723347 -0.313215 0.218294 -0.924253 -0.000080 0.724145
-0.377959 1.428371 0.792968 -0.503394 -0.045912 0.862836 0.008136 0.730528
0.000000 1.396963 1.011804 -0.503394 -0.045912 0.862836 0.036943 0.730528
0.000000 1.674289 1.026561 -0.503394 -0.045912 0.862836 0.036943 0.870948
-0.367647 1.704840 0.813695 -0.503394 -0.045912 0.862836 0.008136 0.870948
-0.553146 1.804153 0.121717 -0.000000 0.989857 0.142065 0.020376 0.985356
-0.506470 1.878802 -0.398411 -0.000000 0.989857 0.142065 0.029786 0.986913
-0.649432 1.894886 -0.510481 -0.000000 0.989857 0.142065 0.030979 0.989997
-0.708848 1.799863 0.151607 -0.000000 0.989857 0.142065 0.019088 0.987659
0.000000 1.902627 -0.564418 0.000000 0.989857 0.142065 0.035915 0.979138
0.000000 1.925437 -0.723347 0.000000 0.989857 0.142065 0.038484 0.979994
0.252158 1.720329 0.705774 0.000000 0.989857 0.142065 0.016170 0.967167
0.000000 1.699375 0.851773 0.000000 0.989857 0.142065 0.012338 0.971276
0.000000 1.674289 1.026561 0.000000 0.989857 0.142065 0.009193 0.970227
0.367647 1.704840 0.813695 0.000000 0.989857 0.142065 0.014863 0.964742
0.506470 1.878802 -0.398411 0.000000 0.989857 0.142065 0.035679 0.969240
0.553146 1.804153 0.121717 0.000000 0.989857 0.142065 0.027218 0.964838
0.708848 1.799863 0.151607 0.000000 0.989857 0.142065 0.027570 0.962222
0.649432 1.894886 -0.510481 0.000000 0.989857 0.142065 0.038484 0.967489
-0.252158 1.720329 0.705774 -0.000000 0.989857 0.142065 0.012937 0.976862
-0.367647 1.704840 0.813695 -0.000000 0.989857 0.142065 0.010437 0.978018
-0.553146 1.804153 0.121717 0.846880 0.368335 -0.383568 0.005132 0.718222
-0.252158 1.720329 0.705774 0.846880 0.368335 -0.383568 0.039947 0.718222
-0.000000 0.296847 -0.104438 0.846880 0.368335 -0.383568 0.039947 0.858451
0.000000 1.699375 0.851773 -0.464974 0.498715 -0.731493 0.005132 0.718222
0.252158 1.720329 0.705774 -0.464974 0.498715 -0.731493 0.039947 0.718222
-0.000000 0.296847 -0.104438 -0.464974 0.498715 -0.731493 0.039947 0.858451
-0.506470 1.878802 -0.398411 0.936918 0.324230 0.130613 0.005132 0.718222
-0.553146 1.804153 0.121717 0.936918 0.324230 0.130613 0.039947 0.718222
-0.000000 0.296847 -0.104438 0.936918 0.324230 0.130613 0.039947 0.858451
0.252158 1.720329 0.705774 -0.846879 0.368335 -0.383568 0.005132 0.718222
0.553146 1.804153 0.121717 -0.846879 0.368335 -0.383568 0.039947 0.718222
-0.000000 0.296847 -0.104438 -0.846879 0.368335 -0.383568 0.039947 0.858451
-3.009337 2.883726 -0.532809 -0.808155 -0.299977 0.506852 0.076452 0.718750
-2.004668 -0.217601 -0.766405 -0.808155 -0.299977 0.506852 0.498327 0.718750
-1.861148 1.085383 0.233595 -0.808155 -0.299977 0.506852 0.326452 0.859375
3.009337 2.883726 -0.532809 0.842856 -0.538139 0.000000 0.171875 0.984375
3.009337 2.883726 0.055296 0.842856 -0.538139 0.000000 0.171875 0.875000
0.712959 -0.712959 1.000000 0.842856 -0.538139 0.000000 0.359375 0.921875
1.861148 1.085383 0.233595 0.842856 -0.538139 0.000000 0.234375 0.953125
-1.861148 1.085383 0.233595 -0.808155 -0.299977 0.506852 0.000000 0.593750
-0.856480 -2.015944 0.000000 -0.808155 -0.299977 0.506852 0.046875 0.015625
-0.712959 -0.712959 1.000000 -0.808155 -0.299977 0.506852 0.046875 0.593750
-0.856480 -2.015944 0.000000 -0.808155 -0.299977 0.506852 0.748327 0.859375
-1.000000 -3.318928 -1.000000 -0.808155 -0.299977 0.506852 0.920202 0.718750
0.856480 -2.015944 0.000000 0.808155 -0.299977 0.506852 0.375000 0.859375
1.000000 -3.318928 -1.000000 0.808155 -0.299977 0.506852 0.317912 1.000000
1.861148 1.085383 0.233595 0.808155 -0.299977 0.506852 0.000000 0.593750
0.712959 -0.712959 1.000000 0.808155 -0.299977 0.506852 0.046875 0.593750
0.856480 -2.015944 0.000000 0.808155 -0.299977 0.506852 0.046875 0.015625
1.000000 -3.318928 -1.000000 0.000000 -0.608832 0.793299 0.765625 0.859375
0.856480 -2.015944 0.000000 0.000000 -0.608832 0.793299 0.765625 1.000000
-0.856480 -2.015944 0.000000 0.000000 -0.608832 0.793299 0.656250 1.000000
-1.000000 -3.318928 -1.000000 0.000000 -0.608832 0.793299 0.656250 0.859375
-0.712959 -0.712959 1.000000 -0.380453 0.000000 0.924800 0.234375 1.000000
3.009337 3.748679 0.055296 0.380453 0.000000 0.924800 0.171875 0.859375
4 0 1 2 3
4 4 5 6 7
4 8 9 10 11
4 12 13 14 15
4 16 17 18 19
4 20 21 22 23
5 24 25 26 27 28
4 29 30 31 32
3 33 34 35
4 36 37 38 39
4 40 41 42 43
5 44 45 46 47 48
3 49 50 51
3 52 53 54
5 55 56 57 58 59
5 60 61 62 63 64
5 65 66 67 68 69
5 70 71 72 73 74
4 75 76 77 78
4 79 80 81 82
4 83 84 85 86
4 87 88 89 90
4 91 92 93 94
4 95 96 97 98
4 99 100 101 102
4 103 104 105 106
4 107 108 109 110
4 111 112 113 114
4 115 116 117 118
3 119 120 121
3 122 123 124
3 125 126 127
3 128 129 130
4 131 132 133 134
4 135 136 137 138
4 139 140 141 142
4 143 144 145 146
4 147 148 149 150
4 148 151 152 149
4 153 154 155 156
4 157 158 159 160
4 161 147 150 162
4 151 157 160 152
4 154 161 162 155
4 158 153 156 159
3 163 164 165
3 166 167 168
3 169 170 171
3 172 173 174
3 175 176 177
4 178 179 180 181
3 182 183 184
3 177 176 185
3 176 186 185
3 54 187 188
3 54 53 187
3 189 190 191
4 192 193 194 195
3 33 196 34
3 49 197 50
